<?xml version="1.0" encoding="utf-8"?>
<!-- Generator: Adobe Illustrator 22.0.0, SVG Export Plug-In . SVG Version: 6.00 Build 0)  -->
<svg version="1.1" xmlns="http://www.w3.org/2000/svg" xmlns:xlink="http://www.w3.org/1999/xlink" x="0px" y="0px"
	 viewBox="0 0 1593.5 374.4" style="enable-background:new 0 0 1593.5 374.4;" xml:space="preserve">
<style type="text/css">
	@import url('https://fonts.googleapis.com/css?family=Alegreya|Gelasio|Noto+Serif+TC|Stoke');
	.st0{fill:#FF8C09;}
	.st1{font-family:'AdobeSongStd-Light-GBpc-EUC-H';}
	.st2{font-size:330.14px;}
	.st3{display:none;}
	.st4{display:inline;}
	.st5{stroke:#000000;stroke-width:6;stroke-linecap:round;stroke-miterlimit:10;}
	.st6{fill:none;stroke:#000000;stroke-width:3;stroke-linecap:round;stroke-miterlimit:10;}
	.st7{fill:none;stroke:#000000;stroke-width:6;stroke-linecap:round;stroke-miterlimit:10;}
</style>
<g id="图层_1">
	<title>NsplesHead</title>
	<g id="text">
		<text transform="matrix(1 0 0 1 333.56 290.53)" class="st0 st1 st2" style="font-family:'Alegreya', serif;">Naples</text>
	</g>
</g>
<g id="图层_2" class="st3">
	<g class="st4">
		<path class="st5" d="M282.1,190.6h-236c-1,0.6-2.6,1.4-4.5,2.6c-2.4,1.5-4.8,3.2-7,5c-6.6,5.2-32.1,8.4-32.1,8.6
			c0,0.5,132.1,0.4,279.6,0"/>
		<path class="st6" d="M282.5,190.8c1.1,2.5,1.8,5.2,2,7.9c0,3.4-2,9.1-2,9.1"/>
	</g>
	<g class="st4">
		<g>
			<path class="st7" d="M1488.5,158.9c11.5-2.7,23.4-3.1,35.1-1.1c32.8,5.6,58.9,26.9,67.4,41.4"/>
		</g>
		<g>
			<path class="st7" d="M1488.5,239.9c9.5,2.2,21.3,2.5,35.1,1.1c32.9-3.3,59.9-28.3,67.4-41.4"/>
		</g>
		<g>
			<path class="st7" d="M1488.2,160.1l13,19c0,0,10.3-1.3,16.3-1.3s12,1,13,5s-6,9-8,10s-238.8,0-238.8,0"/>
		</g>
		<g>
			<path class="st7" d="M1488.5,239.7l13-18c0,0,9,1,15,1s12-1,13-5s-6-9-8-10s-238-0.4-238-0.4"/>
		</g>
		<g>
			<path class="st6" d="M1282.5,192.2c0.6,2.5,0.9,5,1,7.5c-0.1,2.9-0.5,5.7-1,8.5"/>
		</g>
	</g>
</g>
<g id="图层_2_x5F_复制">
	<g>
		<path class="st7" d="M282.1,190.6h-236c-1,0.6-2.6,1.4-4.5,2.6c-2.4,1.5-4.8,3.2-7,5c-6.6,5.2-32.1,8.4-32.1,8.6
			c0,0.5,132.1,0.4,279.6,0"/>
		<path class="st6" d="M282.5,190.8c1.1,2.5,1.8,5.2,2,7.9c0,3.4-2,9.1-2,9.1"/>
	</g>
	<g>
		<g>
			<g>
				<path class="st7" d="M1488.5,158.9c11.5-2.7,23.4-3.1,35.1-1.1c32.8,5.6,58.9,26.9,67.4,41.4"/>
			</g>
		</g>
		<g>
			<g>
				<path class="st7" d="M1488.5,239.9c9.5,2.2,21.3,2.5,35.1,1.1c32.9-3.3,59.9-28.3,67.4-41.4"/>
			</g>
		</g>
		<g>
			<g>
				<path class="st7" d="M1488.2,160.1l13,19c0,0,10.3-1.3,16.3-1.3s12,1,13,5s-6,9-8,10s-238.8,0-238.8,0"/>
			</g>
		</g>
		<g>
			<g>
				<path class="st7" d="M1488.5,239.7l13-18c0,0,9,1,15,1s12-1,13-5s-6-9-8-10s-238-0.4-238-0.4"/>
			</g>
		</g>
		<g>
			<g>
				<path class="st6" d="M1282.5,192.2c0.6,2.5,0.9,5,1,7.5c-0.1,2.9-0.5,5.7-1,8.5"/>
			</g>
		</g>
	</g>
</g>
</svg>
